<svg width="46" height="47" viewBox="0 0 36 37" fill="none" xmlns="http://www.w3.org/2000/svg">
<circle cx="18" cy="18.75" r="18" fill="black"/>
<g clip-path="url(#clip0_2_35)">
<path d="M26.6227 23.0284C26.2996 23.775 25.917 24.4622 25.4738 25.094C24.8697 25.9554 24.3751 26.5516 23.9938 26.8827C23.4029 27.4261 22.7698 27.7045 22.0917 27.7203C21.605 27.7203 21.018 27.5818 20.3348 27.3008C19.6492 27.0212 19.0192 26.8827 18.4432 26.8827C17.8391 26.8827 17.1911 27.0212 16.4981 27.3008C15.804 27.5818 15.2449 27.7282 14.8174 27.7427C14.1672 27.7704 13.5191 27.4842 12.8723 26.8827C12.4594 26.5226 11.943 25.9053 11.3243 25.0307C10.6606 24.0968 10.1149 23.0139 9.68737 21.7792C9.22952 20.4456 9 19.1543 9 17.9041C9 16.4719 9.30945 15.2368 9.92928 14.2017C10.4164 13.3703 11.0645 12.7144 11.8756 12.233C12.6867 11.7515 13.5631 11.5062 14.5068 11.4905C15.0233 11.4905 15.7005 11.6502 16.542 11.9642C17.3812 12.2792 17.9201 12.4389 18.1563 12.4389C18.3329 12.4389 18.9315 12.2521 19.9463 11.8797C20.9059 11.5344 21.7158 11.3914 22.3793 11.4477C24.1772 11.5928 25.5279 12.3016 26.4262 13.5784C24.8183 14.5527 24.0229 15.9173 24.0387 17.6678C24.0532 19.0313 24.5479 20.166 25.52 21.0669C25.9606 21.4851 26.4526 21.8082 27 22.0377C26.8813 22.382 26.756 22.7118 26.6227 23.0284ZM22.4993 6.80251C22.4993 7.87123 22.1089 8.8691 21.3306 9.79271C20.3915 10.8907 19.2555 11.5252 18.0236 11.4251C18.0079 11.2968 17.9988 11.1619 17.9988 11.0201C17.9988 9.99413 18.4454 8.89614 19.2386 7.99838C19.6346 7.54383 20.1382 7.16588 20.7489 6.86438C21.3583 6.56737 21.9348 6.40313 22.4769 6.375C22.4927 6.51787 22.4993 6.66075 22.4993 6.8025V6.80251Z" fill="white"/>
</g>
<defs>
<clipPath id="clip0_2_35">
<rect width="18" height="21.3696" fill="white" transform="translate(9 6.375)"/>
</clipPath>
</defs>
</svg>
