<svg class="svg-icon" style="width: 1em; height: 1em;vertical-align: middle;fill: currentColor;overflow: hidden;" viewBox="0 0 1024 1024" version="1.1" xmlns="http://www.w3.org/2000/svg"><path d="M706.133333 456.533333c-29.866667-46.933333-66.133333-40.533333-83.2-34.133333-10.666667 4.266667-19.2 10.666667-25.6 17.066667-21.333333-25.6-55.466667-34.133333-85.333333-21.333334-12.8 6.4-23.466667 17.066667-29.866667 27.733334-4.266667-2.133333-6.4-4.266667-10.666666-4.266667-17.066667-6.4-36.266667-6.4-53.333334 2.133333-8.533333 4.266667-17.066667 10.666667-21.333333 17.066667L320 300.8c-8.533333-17.066667-21.333333-29.866667-38.4-36.266667-17.066667-6.4-36.266667-6.4-53.333333 2.133334s-29.866667 21.333333-36.266667 38.4-6.4 36.266667 2.133333 53.333333l153.6 328.533333c-14.933333-12.8-29.866667-25.6-49.066666-27.733333-64-12.8-104.533333 49.066667-106.666667 51.2l-8.533333 12.8 10.666666 12.8c4.266667 4.266667 36.266667 42.666667 106.666667 108.8 64 59.733333 117.333333 81.066667 155.733333 96 36.266667 14.933333 55.466667 21.333333 66.133334 46.933333l38.4-17.066666c-19.2-40.533333-51.2-53.333333-89.6-68.266667-38.4-14.933333-85.333333-32-142.933334-87.466667-42.666667-40.533333-74.666667-72.533333-91.733333-91.733333 10.666667-10.666667 29.866667-25.6 53.333333-21.333333 12.8 2.133333 27.733333 17.066667 42.666667 32s29.866667 29.866667 46.933333 34.133333c10.666667 2.133333 21.333333 0 25.6-2.133333l23.466667-6.4L232.533333 341.333333c-2.133333-6.4-4.266667-12.8 0-21.333333 2.133333-6.4 6.4-12.8 14.933334-14.933333 6.4-2.133333 12.8-4.266667 21.333333 0 6.4 2.133333 12.8 6.4 14.933333 14.933333L426.666667 627.2l38.4-17.066667-40.533334-87.466666c-6.4-12.8 0-29.866667 12.8-36.266667 6.4-2.133333 12.8-4.266667 21.333334 0 6.4 2.133333 12.8 6.4 14.933333 14.933333l6.4 14.933334 17.066667 36.266666 17.066666 36.266667 38.4-17.066667-6.4-14.933333-12.8-29.866667-12.8-29.866666c-6.4-12.8 0-29.866667 12.8-36.266667 12.8-6.4 29.866667 0 36.266667 12.8l40.533333 87.466667 38.4-17.066667-29.866666-61.866667c4.266667-6.4 10.666667-12.8 21.333333-17.066666 4.266667-2.133333 17.066667-6.4 34.133333 19.2 72.533333 110.933333 91.733333 238.933333 102.4 313.6 4.266667 32 8.533333 51.2 12.8 64l38.4-17.066667c-2.133333-6.4-6.4-29.866667-10.666666-53.333333-14.933333-83.2-34.133333-217.6-110.933334-334.933334zM793.6 179.2c-12.8 0-25.6 4.266667-36.266667 12.8-2.133333 0-2.133333-2.133333-4.266666-2.133333C580.266667 117.333333 426.666667 106.666667 347.733333 106.666667l25.6-25.6c8.533333-8.533333 8.533333-21.333333 0-29.866667s-21.333333-8.533333-29.866666 0l-64 64c-2.133333 0-2.133333 0-2.133334 2.133333s-2.133333 2.133333-2.133333 4.266667v10.666667c0 2.133333 0 2.133333 2.133333 4.266666 0 2.133333 2.133333 2.133333 2.133334 4.266667 0 0 0 2.133333 2.133333 2.133333l64 64c4.266667 4.266667 10.666667 6.4 14.933333 6.4s10.666667-2.133333 14.933334-6.4c8.533333-8.533333 8.533333-21.333333 0-29.866666l-29.866667-29.866667c72.533333 0 224 10.666667 388.266667 78.933333 0 4.266667-2.133333 8.533333-2.133334 12.8 0 34.133333 27.733333 61.866667 61.866667 61.866667s61.866667-27.733333 61.866667-61.866667-27.733333-59.733333-61.866667-59.733333z m0 78.933333c-10.666667 0-19.2-8.533333-19.2-19.2s8.533333-19.2 19.2-19.2 19.2 8.533333 19.2 19.2-8.533333 19.2-19.2 19.2z"  /></svg>