<?xml version="1.0" encoding="utf-8"?>
<!-- Uploaded to SVGRepo https://www.svgrepo.com -->
<!DOCTYPE svg PUBLIC "-//W3C//DTD SVG 1.1//EN" "http://www.w3.org/Graphics/SVG/1.1/DTD/svg11.dtd">
<svg  viewBox="0 0 1000 1000" version="1.1" xmlns="http://www.w3.org/2000/svg" xmlns:xlink="http://www.w3.org/1999/xlink" x="0px" y="0px" enable-background="new 0 0 1000 1000" xml:space="preserve">

<g><g transform="translate(0.000000,511.000000) scale(0.100000,-0.100000)"><path d="M3117.1,4532.3l-477.7-477.7l477.7-477.7l477.7-477.7l128.8,128.8l130.9,130.9l-263.8,263.8l-265.9,265.9H5107h1780.1v176.6v176.6H5107H3324.8l265.9,265.9l263.8,263.8L3734,4891.6c-66.5,64.4-124.6,118.4-128.8,118.4C3599,5010,3378.8,4796.1,3117.1,4532.3z"/><path d="M1823.1,2268.2c-186.9-20.8-342.7-41.5-346.9-45.7c-29.1-33.2-322-735.3-315.7-751.9c6.2-14.5,369.7-521.4,812.2-1127.9l799.7-1103L2494-1582.9l-278.3-822.5l502.7-693.8l502.7-691.7l1233.8-500.6L5688.6-4790l162,118.4c87.2,64.4,155.8,122.5,151.7,128.8c-4.2,6.3-579.5,243-1279.5,525.5l-1273.3,515.1l-419.6,577.4l-419.6,579.6l197.3,587.8c110.1,324,205.6,598.2,213.9,612.8c8.3,14.5,214-251.3,508.9-658.5c319.9-440.4,504.8-679.2,519.3-668.8c74.8,45.7,259.6,182.8,259.6,191.1c0,6.2-619,864.1-1379.2,1908.9C1758.7,1240,1555.1,1530.8,1569.6,1570.2c45.7,120.5,143.3,319.9,159.9,330.3c8.3,4.2,101.8,16.6,205.6,24.9l191.1,14.5l855.8-1181.9C3453.6,110,3842-423.8,3842-425.9c8.3-10.4,282.5,191.1,282.5,205.6c0,8.3-93.5,143.3-205.6,297l-207.7,280.4l81,182.8c89.3,201.5,83.1,197.3,336.5,220.2l157.9,16.6l211.9-292.9l209.8-290.8L4851.5,297l143.3,103.9l-135,205.6c-72.7,114.2-132.9,216-132.9,226.4c0,10.4,35.3,97.6,81,193.2l81,176.6l141.3,12.5c278.3,27,255.5,37.4,390.5-172.4c66.5-101.8,128.8-193.2,139.2-199.4c20.8-12.5,226.4,118.4,268,170.3c14.5,16.6-10.4,66.5-81,164.1L5645,1316.8l83.1,184.9c83.1,180.7,85.2,182.8,170.3,195.3c47.8,6.2,141.2,14.5,207.7,16.6l122.5,4.2l629.4-864.1l629.4-864.1l267.9-972.1l268-970l257.6-355.2c141.3-195.3,263.8-363.5,270-373.9c12.5-16.6,288.7,166.2,288.7,193.2c0,6.2-110.1,164.1-245.1,351.1l-245.1,338.6l-268,967.9l-265.9,970l-704.2,970c-388.4,533.8-712.5,976.3-722.8,982.5c-22.9,14.5-795.5-70.6-814.2-89.3c-6.2-8.3-45.7-89.3-85.2-178.6c-43.6-95.6-89.3-172.4-112.2-180.7c-20.8-6.2-182.8-33.2-359.3-60.2c-176.6-24.9-336.5-54-353.1-62.3c-18.7-10.4-64.4-93.5-103.9-186.9c-39.5-95.6-81-174.5-93.5-178.6c-18.7-6.2-762.3-91.4-803.9-91.4c-10.4,0-58.2-83.1-105.9-186.9l-87.2-184.9l-587.8,808c-569.2,783.1-589.9,810.1-654.3,808C2190.7,2305.5,2007.9,2288.9,1823.1,2268.2z"/></g></g>
</svg>