
<?xml version="1.0" encoding="UTF-8" standalone="no"?>
<!-- Created with Inkscape (http://www.inkscape.org/) -->

<svg
   xmlns:dc="http://purl.org/dc/elements/1.1/"
   xmlns:cc="http://creativecommons.org/ns#"
   xmlns:rdf="http://www.w3.org/1999/02/22-rdf-syntax-ns#"
   xmlns:svg="http://www.w3.org/2000/svg"
   xmlns="http://www.w3.org/2000/svg"
   xmlns:sodipodi="http://sodipodi.sourceforge.net/DTD/sodipodi-0.dtd"
   xmlns:inkscape="http://www.inkscape.org/namespaces/inkscape"
 
   viewBox="0 0 39.9196 37.600556"
   id="svg38487"
   version="1.1"
   inkscape:version="0.91 r13725"
   sodipodi:docname="Basophilic erythoblast.svg">
  <defs
     id="defs38489">
    <radialGradient
       id="Grad3350"
       gradientUnits="userSpaceOnUse"
       gradientTransform="matrix(0.00402832,0,0,0.00402832,314.02068,505.663)"
       r="819.20001"
       cx="0"
       cy="0">
      <stop
         offset="0.24313726"
         stop-color="#BB82BB"
         id="stop17100" />
      <stop
         offset="1.0"
         stop-color="#923A92"
         id="stop17102" />
    </radialGradient>
    <radialGradient
       id="Grad947"
       gradientUnits="userSpaceOnUse"
       gradientTransform="matrix(0.0203857,0,0,0.0201874,315.92068,505.763)"
       r="819.20001"
       cx="0"
       cy="0">
      <stop
         offset="0.8627451"
         stop-color="#994399"
         id="stop4827" />
      <stop
         offset="1.0"
         stop-color="#841D99"
         id="stop4829" />
    </radialGradient>
    <radialGradient
       id="Grad40"
       gradientUnits="userSpaceOnUse"
       gradientTransform="matrix(1.67847e-4,-0.0230408,0.0244904,1.98364e-4,315.02068,505.513)"
       r="819.20001"
       cx="0"
       cy="0">
      <stop
         offset="0.8862745"
         stop-color="#6900D2"
         id="stop278" />
      <stop
         offset="1.0"
         stop-color="#5200A5"
         id="stop280" />
    </radialGradient>
  </defs>
  <sodipodi:namedview
     id="base"
     pagecolor="#ffffff"
     bordercolor="#666666"
     borderopacity="1.0"
     inkscape:pageopacity="0.0"
     inkscape:pageshadow="2"
     inkscape:zoom="9.7448153"
     inkscape:cx="14.379703"
     inkscape:cy="25.508452"
     inkscape:document-units="px"
     inkscape:current-layer="layer1"
     showgrid="false"
     fit-margin-top="0"
     fit-margin-left="0"
     fit-margin-right="0"
     fit-margin-bottom="0"
     inkscape:window-width="1918"
     inkscape:window-height="2094"
     inkscape:window-x="0"
     inkscape:window-y="30"
     inkscape:window-maximized="0" />
  <metadata
     id="metadata38492">
    <rdf:RDF>
      <cc:Work
         rdf:about="">
        <dc:format>image/svg+xml</dc:format>
        <dc:type
           rdf:resource="http://purl.org/dc/dcmitype/StillImage" />
        <dc:title></dc:title>
      </cc:Work>
    </rdf:RDF>
  </metadata>
  <g
     inkscape:label="Layer 1"
     inkscape:groupmode="layer"
     id="layer1"
     transform="translate(-295.25108,-486.263)">
    <path
       d="m 300.82068,491.963 c 3.9,-3.80002 8.63334,-5.7 14.2,-5.7 5.56667,0 10.31667,1.89998 14.25,5.7 3.9333,3.73334 5.9,8.25 5.9,13.55 -0.0333,6.1 -1.7,10.75 -5,13.95 -3.10002,2.96667 -8.03334,4.43335 -14.8,4.4 -6.80002,-0.0667 -11.78336,-1.71668 -14.95,-4.95 -3.23332,-3.26668 -4.95,-7.63335 -5.15,-13.1 -0.23334,-5.5 1.61666,-10.11666 5.55,-13.85 z"
       id="path24572"
       style="overflow:visible;fill:url(#Grad40);stroke-linecap:round;stroke-linejoin:round"
       inkscape:connector-curvature="0" />
    <path
       d="m 327.37068,494.363 c 3.19998,3.16665 4.8,6.98333 4.8,11.45 0,4.43333 -1.60002,8.2333 -4.8,11.4 -3.16666,3.16666 -7,4.75 -11.5,4.75 -4.5,0 -8.33334,-1.58334 -11.5,-4.75 -3.16666,-3.16666 -4.75,-6.96664 -4.75,-11.4 0,-4.46667 1.58334,-8.28335 4.75,-11.45 3.16666,-3.16666 7,-4.7333 11.5,-4.7 4.5,-0.0333 8.33334,1.5333 11.5,4.7 z"
       id="path26426"
       style="overflow:visible;fill:url(#Grad947);stroke-linecap:round;stroke-linejoin:round"
       inkscape:connector-curvature="0" />
    <path
       d="m 316.07068,503.363 c 0.56666,0.63333 0.85,1.4 0.85,2.3 0,0.9 -0.28334,1.66667 -0.85,2.3 -0.56667,0.63333 -1.25002,0.95 -2.05,0.95 -0.8,0 -1.4833,-0.31667 -2.05,-0.95 -0.56667,-0.63333 -0.85,-1.4 -0.85,-2.3 0,-0.89998 0.28333,-1.66664 0.85,-2.3 0.5667,-0.63334 1.25,-0.95 2.05,-0.95 0.8,0 1.48336,0.31666 2.05,0.95 z"
       id="path31234"
       style="overflow:visible;fill:url(#Grad3350);stroke-linecap:round;stroke-linejoin:round"
       inkscape:connector-curvature="0" />
    <path
       d="m 298.32068,500.813 c 2.3,-6.7 6.9,-10.41668 13.8,-11.15"
       id="path33966"
       style="overflow:visible;fill:none;stroke:#ae76e7;stroke-width:0.5;stroke-linecap:round;stroke-linejoin:round"
       inkscape:connector-curvature="0" />
    <path
       d="m 302.12068,502.663 c 1.30002,-5.93334 5.05002,-9.43334 11.25,-10.5"
       id="path34026"
       style="overflow:visible;fill:none;stroke:#885bb4;stroke-width:0.5;stroke-linecap:round;stroke-linejoin:round"
       inkscape:connector-curvature="0" />
  </g>
</svg>
