
<?xml version="1.0" encoding="UTF-8" standalone="no"?>
<!-- Created with Inkscape (http://www.inkscape.org/) -->

<svg
   xmlns:dc="http://purl.org/dc/elements/1.1/"
   xmlns:cc="http://creativecommons.org/ns#"
   xmlns:rdf="http://www.w3.org/1999/02/22-rdf-syntax-ns#"
   xmlns:svg="http://www.w3.org/2000/svg"
   xmlns="http://www.w3.org/2000/svg"
   xmlns:sodipodi="http://sodipodi.sourceforge.net/DTD/sodipodi-0.dtd"
   xmlns:inkscape="http://www.inkscape.org/namespaces/inkscape"
  
   viewBox="0 0 33.924583 35.09038"
   id="svg81805"
   version="1.1"
   inkscape:version="0.91 r13725"
   sodipodi:docname="Neutrophil.svg">
  <defs
     id="defs81807" />
  <sodipodi:namedview
     id="base"
     pagecolor="#ffffff"
     bordercolor="#666666"
     borderopacity="1.0"
     inkscape:pageopacity="0.0"
     inkscape:pageshadow="2"
     inkscape:zoom="11.735595"
     inkscape:cx="27.733105"
     inkscape:cy="-2.3187542"
     inkscape:document-units="px"
     inkscape:current-layer="layer1"
     showgrid="false"
     inkscape:window-width="1918"
     inkscape:window-height="2094"
     inkscape:window-x="13"
     inkscape:window-y="30"
     inkscape:window-maximized="0"
     fit-margin-top="0"
     fit-margin-left="0"
     fit-margin-right="0"
     fit-margin-bottom="0" />
  <metadata
     id="metadata81810">
    <rdf:RDF>
      <cc:Work
         rdf:about="">
        <dc:format>image/svg+xml</dc:format>
        <dc:type
           rdf:resource="http://purl.org/dc/dcmitype/StillImage" />
        <dc:title></dc:title>
      </cc:Work>
    </rdf:RDF>
  </metadata>
  <g
     inkscape:label="Layer 1"
     inkscape:groupmode="layer"
     id="layer1"
     transform="translate(-237.87671,-494.95307)">
    <path
       d="m 269.79721,516.11876 -4.3,5.3 c -0.4,0.5 -0.6,1.8333 -0.6,4 0,1.6667 -0.8,2.6334 -2.4,2.9 -6.3333,1.16666 -12.51665,1.03336 -18.55,-0.4 -2.8667,-0.7 -4.3667,-2.9167 -4.5,-6.65 l -0.75,-13.55 c -0.13334,-2.3333 0.6833,-4.25 2.45,-5.75 1,-0.8333 3.4833,-2.25 7.45,-4.25 3.1,-1.56665 5.8667,-2.0833 8.3,-1.55 1.53336,0.3333 3.4667,1.36665 5.8,3.1 1.70004,1.2 2.9667,3.15 3.8,5.85 0.86665,2.6333 1.7166,4.24996 2.55,4.85 1.9667,1.5 2.2167,3.55 0.75,6.15 z m -26.25,-7.05 c -0.39996,1.03336 -0.3333,2.3167 0.2,3.85 0.3,0.8 0.6333,1.35 1,1.65 0.9333,0.79996 2.0166,0.8166 3.25,0.05 0.9333,-0.5667 1.3166,-1.63334 1.15,-3.2 l -0.65,-2.2 c -0.43334,-1.3333 -0.68334,-2.6666 -0.75,-4 -0.1,-1.3333 0.1833,-2.4667 0.85,-3.4 0.6667,-0.9333 1.6667,-1.2333 3,-0.9 l 3.5,1 c 0.96666,0.36665 1.6667,1.15 2.1,2.35 0.6,0.8 1.61666,1.2333 3.05,1.3 l 2.1,-0.3 c 0.43334,-0.2667 0.80004,-0.2167 1.1,0.15 0.2667,0.36665 0.11666,0.81666 -0.45,1.35 -1.43334,0.2333 -2.25,0.9 -2.45,2 -0.23334,1.1 0.0333,2.15 0.8,3.15 0.76665,1 1.5833,1.6333 2.45,1.9 0.86664,0.26664 1.55,0.65 2.05,1.15 0.46666,0.5 0.56664,1.38336 0.3,2.65 -0.3,1.2667 -1.1833,1.95004 -2.65,2.05 -1.5,0.0667 -2.8333,-0.13335 -4,-0.6 -1.2,-0.5 -2.58336,-0.61666 -4.15,-0.35 -1.6,0.26666 -2.75,0.73334 -3.45,1.4 -0.73336,0.6667 -0.85,1.60006 -0.35,2.8 0.5,1.1667 1.23334,2.0167 2.2,2.55 1.06666,0.60004 2.2667,0.88336 3.6,0.85 1.43334,0 2.25,-0.6333 2.45,-1.9 0.1667,-1.13335 0.5667,-1.9833 1.2,-2.55 l 0.2,-0.15 c 1.03335,-0.56665 2.05,-1 3.05,-1.3 1.06666,-0.3333 1.85,-1.06664 2.35,-2.2 l 1.3,-3.9 c 0.3667,-1.46664 0.3,-2.5666 -0.2,-3.3 l -1.5,-2.5 -1.9,-2.75 -1.05,-3.4 c -0.3333,-0.9333 -0.95,-1.51664 -1.85,-1.75 l -3.6,-0.3 c -0.26666,-0.1 -0.5833,-0.4 -0.95,-0.9 -0.3333,-0.5 -0.9,-0.7833 -1.7,-0.85 -0.8,-0.1 -1.8,0.0667 -3,0.5 -1.23336,0.4333 -2.45004,1.2 -3.65,2.3 -1.2333,1.0667 -2,2.0667 -2.3,3 -0.3333,0.9333 -1.21665,2.49996 -2.65,4.7 z"
       id="path24654"
       style="overflow:visible;fill:#ebd7ff;stroke-linecap:round;stroke-linejoin:round"
       inkscape:connector-curvature="0" />
    <path
       d="m 265.49721,521.41876 4.3,-5.3 c 1.4667,-2.6 1.2167,-4.65 -0.75,-6.15 -0.8333,-0.60004 -1.6833,-2.2167 -2.55,-4.85 -0.8333,-2.7 -2.09996,-4.65 -3.8,-5.85 -2.3333,-1.73335 -4.26664,-2.7667 -5.8,-3.1 -2.4333,-0.5333 -5.2,-0.0167 -8.3,1.55 -3.9667,2 -6.45,3.4167 -7.45,4.25 -1.7667,1.5 -2.58334,3.4167 -2.45,5.75 l 0.75,13.55 c 0.1333,3.7333 1.6333,5.95 4.5,6.65 6.03335,1.4333 12.2167,1.5666 18.55,0.4 1.6,-0.2667 2.4,-1.23336 2.4,-2.9 0,-2.1667 0.2,-3.5 0.6,-4 z m 5.3,-5.15 -4.55,5.65 c -0.43334,0.53334 -0.65,1.93336 -0.65,4.2 0,1.7667 -0.85,2.8 -2.55,3.1 -6.7,1.23334 -13.25,1.0833 -19.65,-0.45 -3,-0.73335 -4.5667,-3.06666 -4.7,-7 l -0.8,-14.4 c -0.1667,-2.46665 0.6833,-4.4833 2.55,-6.05 1.0667,-0.9 3.7,-2.4 7.9,-4.5 3.3,-1.6667 6.2333,-2.2167 8.8,-1.65 1.63334,0.36665 3.66666,1.44996 6.1,3.25 1.8,1.3 3.15,3.36665 4.05,6.2 0.93335,2.8 1.8334,4.53335 2.7,5.2 2.1,1.5667 2.36665,3.7167 0.8,6.45 z"
       id="path24656"
       style="overflow:visible;fill:#dcb8ff;stroke-linecap:round;stroke-linejoin:round"
       inkscape:connector-curvature="0" />
    <path
       inkscape:connector-curvature="0"
       style="overflow:visible;fill:#7f00ff;stroke-linecap:round;stroke-linejoin:round"
       d="m 243.74721,512.91876 c -0.5333,-1.5333 -0.59996,-2.81664 -0.2,-3.85 1.43335,-2.20004 2.3167,-3.7667 2.65,-4.7 0.3,-0.9333 1.0667,-1.9333 2.3,-3 1.2,-1.1 2.4167,-1.8667 3.65,-2.3 1.2,-0.4333 2.2,-0.6 3,-0.5 0.79996,0.0667 1.3666,0.35 1.7,0.85 0.3666,0.5 0.6833,0.8 0.95,0.9 l 3.6,0.3 c 0.9,0.23336 1.5167,0.8167 1.85,1.75 l 1.05,3.4 1.9,2.75 1.5,2.5 c 0.5,0.7333 0.5667,1.8333 0.2,3.3 l -1.3,3.9 c -0.5,1.13336 -1.28334,1.8667 -2.35,2.2 -1,0.3 -2.01665,0.73335 -3.05,1.3 l -0.2,0.15 c -0.63335,0.5667 -1.0334,1.41665 -1.2,2.55 -0.2,1.2667 -1.01666,1.9 -2.45,1.9 -1.3333,0.0334 -2.53334,-0.24996 -3.6,-0.85 -0.96666,-0.5333 -1.7,-1.3833 -2.2,-2.55 -0.5,-1.2 -0.38336,-2.13335 0.35,-2.8 0.7,-0.66666 1.85,-1.13334 3.45,-1.4 1.5667,-0.26666 2.95006,-0.15 4.15,0.35 1.1667,0.46665 2.5,0.66666 4,0.6 1.4667,-0.1 2.35,-0.7834 2.65,-2.05 0.26664,-1.26664 0.16666,-2.15 -0.3,-2.65 -0.5,-0.5 -1.18336,-0.88336 -2.05,-1.15 -0.86664,-0.2667 -1.6833,-0.9 -2.45,-1.9 -0.7667,-1 -1.03334,-2.05 -0.8,-3.15 0.2,-1.1 1.01666,-1.7667 2.45,-2 0.56666,-0.53334 0.7167,-0.98335 0.45,-1.35 -0.29996,-0.3666 -0.66666,-0.4166 -1.1,-0.15 l -2.1,0.3 c -1.43334,-0.0667 -2.45,-0.5 -3.05,-1.3 -0.4333,-1.2 -1.13334,-1.98335 -2.1,-2.35 l -3.5,-1 c -1.3333,-0.3333 -2.3333,-0.0333 -3,0.9 -0.6667,0.9333 -0.95,2.0667 -0.85,3.4 0.0667,1.3333 0.31666,2.6666 0.75,4 l 0.65,2.2 c 0.16666,1.56666 -0.21664,2.6333 -1.15,3.2 -1.2333,0.7667 -2.31664,0.75 -3.25,-0.05 -0.3666,-0.3 -0.69994,-0.85 -1,-1.65 z"
       id="path25574" />
    <path
       d="m 240.54721,508.71876 c -0.56665,-3.93335 1.76666,-6.6667 7,-8.2"
       id="path33984"
       style="overflow:visible;fill:none;stroke:#f6ebff;stroke-width:0.5;stroke-linecap:round;stroke-linejoin:round"
       inkscape:connector-curvature="0" />
    <path
       d="m 243.54721,509.06876 c -0.39996,1.03336 -0.3333,2.3167 0.2,3.85 0.3,0.8 0.6333,1.35 1,1.65 0.9333,0.79996 2.0166,0.8166 3.25,0.05 0.9333,-0.5667 1.3166,-1.63334 1.15,-3.2 l -0.65,-2.2 c -0.43334,-1.3333 -0.68334,-2.6666 -0.75,-4 -0.1,-1.3333 0.1833,-2.4667 0.85,-3.4 0.6667,-0.9333 1.6667,-1.2333 3,-0.9 l 3.5,1 c 0.96666,0.36665 1.6667,1.15 2.1,2.35 0.6,0.8 1.61666,1.2333 3.05,1.3 l 2.1,-0.3 c 0.43334,-0.2667 0.80004,-0.2167 1.1,0.15 0.2667,0.36665 0.11666,0.81666 -0.45,1.35 -1.43334,0.2333 -2.25,0.9 -2.45,2 -0.23334,1.1 0.0333,2.15 0.8,3.15 0.76665,1 1.5833,1.6333 2.45,1.9 0.86664,0.26664 1.55,0.65 2.05,1.15 0.46666,0.5 0.56664,1.38336 0.3,2.65 -0.3,1.2667 -1.1833,1.95004 -2.65,2.05 -1.5,0.0667 -2.8333,-0.13335 -4,-0.6 -1.2,-0.5 -2.58336,-0.61666 -4.15,-0.35 -1.6,0.26666 -2.75,0.73334 -3.45,1.4 -0.73336,0.6667 -0.85,1.60006 -0.35,2.8 0.5,1.1667 1.23334,2.0167 2.2,2.55 1.06666,0.60004 2.2667,0.88336 3.6,0.85 1.43334,0 2.25,-0.6333 2.45,-1.9 0.1667,-1.13335 0.5667,-1.9833 1.2,-2.55 l 0.2,-0.15 c 1.03335,-0.56665 2.05,-1 3.05,-1.3 1.06666,-0.3333 1.85,-1.06664 2.35,-2.2 l 1.3,-3.9 c 0.3667,-1.46664 0.3,-2.5666 -0.2,-3.3 l -1.5,-2.5 -1.9,-2.75 -1.05,-3.4 c -0.3333,-0.9333 -0.95,-1.51664 -1.85,-1.75 l -3.6,-0.3 c -0.26666,-0.1 -0.5833,-0.4 -0.95,-0.9 -0.3333,-0.5 -0.9,-0.7833 -1.7,-0.85 -0.8,-0.1 -1.8,0.0667 -3,0.5 -1.23336,0.4333 -2.45004,1.2 -3.65,2.3 -1.2333,1.0667 -2,2.0667 -2.3,3 -0.3333,0.9333 -1.21665,2.49996 -2.65,4.7 z"
       id="path34060"
       style="overflow:visible;fill:none;stroke:#5706a8;stroke-width:0.5;stroke-linecap:round;stroke-linejoin:round"
       inkscape:connector-curvature="0" />
    <path
       d="m 244.34721,511.61876 c -0.1334,-1.3333 0.19994,-2.3666 1,-3.1"
       id="path34120"
       style="overflow:visible;fill:none;stroke:#b07ae7;stroke-width:0.25;stroke-linecap:round;stroke-linejoin:round"
       inkscape:connector-curvature="0" />
    <path
       d="m 252.29721,521.06876 c 0.0666,-0.6 0.39996,-0.8833 1,-0.85"
       id="path34122"
       style="overflow:visible;fill:none;stroke:#b07ae7;stroke-width:0.25;stroke-linecap:round;stroke-linejoin:round"
       inkscape:connector-curvature="0" />
    <path
       d="m 261.59721,509.51876 c 0.0333,-0.8 0.43334,-1.28334 1.2,-1.45"
       id="path34124"
       style="overflow:visible;fill:none;stroke:#b07ae7;stroke-width:0.25;stroke-linecap:round;stroke-linejoin:round"
       inkscape:connector-curvature="0" />
    <path
       d="m 252.69721,499.36876 1.1,-0.1"
       id="path34126"
       style="overflow:visible;fill:none;stroke:#b07ae7;stroke-width:0.25;stroke-linecap:round;stroke-linejoin:round"
       inkscape:connector-curvature="0" />
  </g>
</svg>
