<svg width="100%" height="100%" viewBox="0 0 36 37" fill="none" xmlns="http://www.w3.org/2000/svg">
<rect y="0.625" width="36" height="36" rx="18" fill="#395185"/>
<g clip-path="url(#clip0_205_218)">
<path d="M23.6945 27.6251C24.2773 27.6251 24.75 27.1525 24.75 26.5695V9.55554C24.75 8.97252 24.2773 8.5 23.6945 8.5H6.68054C6.09745 8.5 5.625 8.97252 5.625 9.55554V26.5695C5.625 27.1525 6.09745 27.6251 6.68054 27.6251H23.6945Z" fill="#395185"/>
<path d="M18.8209 27.6251V20.2188H21.3069L21.6791 17.3325H18.8209V15.4897C18.8209 14.654 19.053 14.0845 20.2514 14.0845L21.7798 14.0838V11.5023C21.5154 11.4671 20.6081 11.3885 19.5526 11.3885C17.3489 11.3885 15.8403 12.7336 15.8403 15.2039V17.3325H13.3479V20.2188H15.8403V27.6251H18.8209Z" fill="white"/>
</g>
<defs>
<clipPath id="clip0_205_218">
<rect x="5.625" y="8.5" width="19.125" height="19.125" fill="white"/>
</clipPath>
</defs>
</svg>
