<svg width="49" height="49" viewBox="0 0 39 39" fill="none" xmlns="http://www.w3.org/2000/svg">
<path d="M34.8775 16.7536H33.5938V16.6875H19.25V23.0625H28.2571C26.943 26.7736 23.4121 29.4375 19.25 29.4375C13.9691 29.4375 9.6875 25.1559 9.6875 19.875C9.6875 14.5941 13.9691 10.3125 19.25 10.3125C21.6876 10.3125 23.9053 11.2321 25.5939 12.7342L30.1018 8.22628C27.2554 5.57348 23.4479 3.9375 19.25 3.9375C10.4485 3.9375 3.3125 11.0735 3.3125 19.875C3.3125 28.6765 10.4485 35.8125 19.25 35.8125C28.0515 35.8125 35.1875 28.6765 35.1875 19.875C35.1875 18.8064 35.0775 17.7633 34.8775 16.7536Z" fill="#FFC107"/>
<path d="M5.15015 12.4569L10.3864 16.297C11.8033 12.7892 15.2346 10.3125 19.2501 10.3125C21.6877 10.3125 23.9054 11.2321 25.594 12.7342L30.1019 8.22628C27.2555 5.57348 23.448 3.9375 19.2501 3.9375C13.1285 3.9375 7.81968 7.39355 5.15015 12.4569Z" fill="#FF3D00"/>
<path d="M19.25 35.8125C23.3667 35.8125 27.1072 34.237 29.9353 31.6751L25.0026 27.5011C23.3488 28.7588 21.3278 29.4391 19.25 29.4375C15.1047 29.4375 11.5849 26.7942 10.2589 23.1055L5.06165 27.1098C7.6993 32.2712 13.0559 35.8125 19.25 35.8125Z" fill="#4CAF50"/>
<path d="M34.8775 16.7536H33.5937V16.6875H19.25V23.0625H28.2571C27.6285 24.8287 26.4963 26.3721 25.0002 27.5019L25.0026 27.5003L29.9353 31.6743C29.5863 31.9915 35.1875 27.8437 35.1875 19.875C35.1875 18.8064 35.0775 17.7633 34.8775 16.7536Z" fill="#1976D2"/>
</svg>
