<svg width="308" height="160" viewBox="0 0 208 60" fill="none" xmlns="http://www.w3.org/2000/svg">
<path d="M42.3796 47.9758L39.0574 57H38.2136L41.8391 47.4023H42.4258L42.3796 47.9758ZM45.3987 57L42.0698 47.9758L42.0237 47.4023H42.6104L46.2424 57H45.3987ZM44.8054 53.6118V54.3105H39.71V53.6118H44.8054ZM47.4092 56.5188C47.4092 56.365 47.4575 56.2354 47.5542 56.1299C47.6553 56.02 47.7915 55.9651 47.9629 55.9651C48.1387 55.9651 48.2771 56.0178 48.3782 56.1233C48.4792 56.2288 48.5298 56.3606 48.5298 56.5188C48.5298 56.6682 48.4792 56.7957 48.3782 56.9011C48.2771 57.0066 48.1387 57.0593 47.9629 57.0593C47.7915 57.0593 47.6553 57.0066 47.5542 56.9011C47.4575 56.7957 47.4092 56.6682 47.4092 56.5188ZM51.885 47.4023V57H51.0742V47.4023H51.885ZM61.0938 52.3857H58.3911L58.3779 51.7002H60.7048C61.1794 51.7002 61.5837 51.6321 61.9177 51.4958C62.2517 51.3596 62.5044 51.1575 62.6758 50.8894C62.8516 50.6169 62.9395 50.283 62.9395 49.8875C62.9395 49.4832 62.8538 49.1492 62.6824 48.8855C62.511 48.6174 62.2539 48.4197 61.9111 48.2922C61.5684 48.1648 61.1377 48.1011 60.6191 48.1011H58.6021V57H57.7913V47.4023H60.6191C61.1069 47.4023 61.5442 47.4507 61.9309 47.5474C62.3176 47.644 62.6472 47.7957 62.9197 48.0022C63.1921 48.2087 63.3987 48.4702 63.5393 48.7866C63.6843 49.0986 63.7568 49.4722 63.7568 49.9072C63.7568 50.3027 63.6689 50.6609 63.4932 50.9817C63.3174 51.2981 63.0691 51.5574 62.7483 51.7595C62.4319 51.9573 62.0518 52.0803 61.6079 52.1287L61.0938 52.3857ZM61.0344 57H58.134L58.5493 56.3079H61.0344C61.509 56.3079 61.9133 56.2288 62.2473 56.0706C62.5857 55.908 62.845 55.6772 63.0251 55.3784C63.2053 55.0796 63.2954 54.7236 63.2954 54.3105C63.2954 53.9458 63.2163 53.6184 63.0581 53.3284C62.8999 53.0383 62.6582 52.8098 62.333 52.6428C62.0078 52.4714 61.5947 52.3857 61.0938 52.3857H59.4128L59.426 51.7002H61.8057L61.9507 51.9441C62.3813 51.988 62.7571 52.1221 63.0779 52.3462C63.4031 52.5659 63.6536 52.845 63.8293 53.1833C64.0095 53.5217 64.0996 53.8931 64.0996 54.2974C64.0996 54.8774 63.97 55.3696 63.7107 55.7739C63.4558 56.1738 63.0977 56.4792 62.6362 56.6902C62.1792 56.8967 61.6453 57 61.0344 57ZM66.7627 46.875V57H65.9783V46.875H66.7627ZM68.4832 53.5459V53.3284C68.4832 52.8098 68.5579 52.3308 68.7073 51.8914C68.8567 51.4519 69.0698 51.0718 69.3467 50.751C69.6279 50.4302 69.9641 50.1819 70.3552 50.0061C70.7463 49.8259 71.1814 49.7358 71.6604 49.7358C72.1438 49.7358 72.5811 49.8259 72.9722 50.0061C73.3633 50.1819 73.6995 50.4302 73.9807 50.751C74.262 51.0718 74.4773 51.4519 74.6267 51.8914C74.7761 52.3308 74.8508 52.8098 74.8508 53.3284V53.5459C74.8508 54.0645 74.7761 54.5435 74.6267 54.9829C74.4773 55.418 74.262 55.7959 73.9807 56.1167C73.7039 56.4375 73.3699 56.688 72.9788 56.8682C72.5876 57.0439 72.1526 57.1318 71.6736 57.1318C71.1902 57.1318 70.7529 57.0439 70.3618 56.8682C69.9707 56.688 69.6345 56.4375 69.3533 56.1167C69.072 55.7959 68.8567 55.418 68.7073 54.9829C68.5579 54.5435 68.4832 54.0645 68.4832 53.5459ZM69.2676 53.3284V53.5459C69.2676 53.937 69.3203 54.3083 69.4258 54.6599C69.5312 55.0071 69.6851 55.3169 69.8872 55.5894C70.0894 55.8574 70.3398 56.0684 70.6387 56.2222C70.9375 56.376 71.2825 56.4529 71.6736 56.4529C72.0603 56.4529 72.4009 56.376 72.6953 56.2222C72.9941 56.0684 73.2446 55.8574 73.4468 55.5894C73.6489 55.3169 73.8005 55.0071 73.9016 54.6599C74.0071 54.3083 74.0598 53.937 74.0598 53.5459V53.3284C74.0598 52.9417 74.0071 52.5747 73.9016 52.2275C73.8005 51.8804 73.6467 51.5706 73.4402 51.2981C73.238 51.0256 72.9875 50.8103 72.6887 50.6521C72.3899 50.4939 72.0471 50.4148 71.6604 50.4148C71.2737 50.4148 70.9309 50.4939 70.6321 50.6521C70.3376 50.8103 70.0872 51.0256 69.8806 51.2981C69.6785 51.5706 69.5247 51.8804 69.4192 52.2275C69.3181 52.5747 69.2676 52.9417 69.2676 53.3284ZM76.0505 53.5459V53.3284C76.0505 52.8098 76.1252 52.3308 76.2747 51.8914C76.4241 51.4519 76.6372 51.0718 76.9141 50.751C77.1953 50.4302 77.5315 50.1819 77.9226 50.0061C78.3137 49.8259 78.7488 49.7358 79.2278 49.7358C79.7112 49.7358 80.1484 49.8259 80.5396 50.0061C80.9307 50.1819 81.2668 50.4302 81.5481 50.751C81.8293 51.0718 82.0447 51.4519 82.1941 51.8914C82.3435 52.3308 82.4182 52.8098 82.4182 53.3284V53.5459C82.4182 54.0645 82.3435 54.5435 82.1941 54.9829C82.0447 55.418 81.8293 55.7959 81.5481 56.1167C81.2712 56.4375 80.9373 56.688 80.5461 56.8682C80.155 57.0439 79.72 57.1318 79.241 57.1318C78.7576 57.1318 78.3203 57.0439 77.9292 56.8682C77.5381 56.688 77.2019 56.4375 76.9207 56.1167C76.6394 55.7959 76.4241 55.418 76.2747 54.9829C76.1252 54.5435 76.0505 54.0645 76.0505 53.5459ZM76.835 53.3284V53.5459C76.835 53.937 76.8877 54.3083 76.9932 54.6599C77.0986 55.0071 77.2524 55.3169 77.4546 55.5894C77.6567 55.8574 77.9072 56.0684 78.2061 56.2222C78.5049 56.376 78.8499 56.4529 79.241 56.4529C79.6277 56.4529 79.9683 56.376 80.2627 56.2222C80.5615 56.0684 80.812 55.8574 81.0142 55.5894C81.2163 55.3169 81.3679 55.0071 81.469 54.6599C81.5745 54.3083 81.6272 53.937 81.6272 53.5459V53.3284C81.6272 52.9417 81.5745 52.5747 81.469 52.2275C81.3679 51.8804 81.2141 51.5706 81.0076 51.2981C80.8054 51.0256 80.5549 50.8103 80.2561 50.6521C79.9573 50.4939 79.6145 50.4148 79.2278 50.4148C78.8411 50.4148 78.4983 50.4939 78.1995 50.6521C77.905 50.8103 77.6545 51.0256 77.448 51.2981C77.2458 51.5706 77.092 51.8804 76.9866 52.2275C76.8855 52.5747 76.835 52.9417 76.835 53.3284ZM88.687 55.6157V46.875H89.478V57H88.7397L88.687 55.6157ZM83.7366 53.5063V53.3679C83.7366 52.8142 83.8003 52.3154 83.9277 51.8716C84.0552 51.4233 84.2375 51.041 84.4749 50.7246C84.7166 50.4038 85.0066 50.1599 85.345 49.9929C85.6833 49.8215 86.0657 49.7358 86.4919 49.7358C86.9094 49.7358 87.2786 49.804 87.5994 49.9402C87.9202 50.0764 88.1948 50.272 88.4233 50.5269C88.6562 50.7817 88.843 51.085 88.9836 51.4365C89.1287 51.7881 89.2341 52.1792 89.3 52.6099V54.3699C89.2473 54.7742 89.1506 55.1455 89.01 55.4839C88.8694 55.8179 88.6826 56.1101 88.4497 56.3606C88.2168 56.6067 87.9355 56.7979 87.606 56.9341C87.2808 57.0659 86.905 57.1318 86.4788 57.1318C86.0569 57.1318 85.6768 57.0439 85.3384 56.8682C85 56.6924 84.7122 56.4441 84.4749 56.1233C84.2375 55.7981 84.0552 55.4136 83.9277 54.9697C83.8003 54.5259 83.7366 54.0381 83.7366 53.5063ZM84.5276 53.3679V53.5063C84.5276 53.9238 84.5693 54.3105 84.6528 54.6665C84.7363 55.0225 84.8638 55.3323 85.0352 55.5959C85.2065 55.8596 85.4241 56.0662 85.6877 56.2156C85.9514 56.365 86.2634 56.4397 86.6238 56.4397C87.0764 56.4397 87.4565 56.354 87.7642 56.1826C88.0718 56.0068 88.3179 55.7761 88.5024 55.4905C88.687 55.2004 88.821 54.884 88.9045 54.5413V52.4912C88.8518 52.2583 88.7749 52.021 88.6738 51.7793C88.5728 51.5376 88.4343 51.3157 88.2585 51.1135C88.0872 50.907 87.8674 50.7422 87.5994 50.6191C87.3357 50.4917 87.0149 50.428 86.637 50.428C86.2722 50.428 85.958 50.5027 85.6943 50.6521C85.4307 50.8015 85.2109 51.0103 85.0352 51.2783C84.8638 51.542 84.7363 51.8518 84.6528 52.2078C84.5693 52.5637 84.5276 52.9504 84.5276 53.3679ZM97.4805 56.4529C97.8145 56.4529 98.1265 56.3914 98.4165 56.2683C98.7109 56.1409 98.9526 55.9541 99.1416 55.708C99.335 55.4575 99.4448 55.1521 99.4712 54.7917H100.223C100.201 55.2444 100.062 55.6487 99.8074 56.0046C99.5569 56.3562 99.2273 56.6331 98.8186 56.8352C98.4143 57.033 97.9683 57.1318 97.4805 57.1318C96.9839 57.1318 96.5444 57.0417 96.1621 56.8616C95.7842 56.6814 95.4678 56.4309 95.2129 56.1101C94.958 55.7849 94.7646 55.407 94.6328 54.9763C94.5054 54.5413 94.4417 54.0732 94.4417 53.5723V53.2954C94.4417 52.7944 94.5054 52.3286 94.6328 51.8979C94.7646 51.4629 94.958 51.085 95.2129 50.7642C95.4678 50.439 95.7842 50.1863 96.1621 50.0061C96.54 49.8259 96.9773 49.7358 97.4739 49.7358C97.9836 49.7358 98.4407 49.8391 98.845 50.0457C99.2537 50.2522 99.5789 50.5444 99.8206 50.9224C100.067 51.3003 100.201 51.7485 100.223 52.2671H99.4712C99.4492 51.8848 99.3481 51.5552 99.168 51.2783C98.9878 51.0015 98.7505 50.7883 98.4561 50.6389C98.1616 50.4895 97.8342 50.4148 97.4739 50.4148C97.0696 50.4148 96.7246 50.4939 96.439 50.6521C96.1533 50.8059 95.9204 51.019 95.7402 51.2915C95.5645 51.5596 95.4348 51.8672 95.3513 52.2144C95.2678 52.5571 95.2261 52.9175 95.2261 53.2954V53.5723C95.2261 53.9546 95.2656 54.3193 95.3447 54.6665C95.4282 55.0093 95.5579 55.3147 95.7336 55.5828C95.9138 55.8508 96.1467 56.064 96.4324 56.2222C96.7224 56.376 97.0718 56.4529 97.4805 56.4529ZM104.567 57.1318C104.101 57.1318 103.672 57.0461 103.281 56.8748C102.895 56.7034 102.556 56.4617 102.266 56.1497C101.98 55.8376 101.759 55.4685 101.6 55.0422C101.447 54.6116 101.37 54.1414 101.37 53.6316V53.3481C101.37 52.7988 101.451 52.3022 101.614 51.8584C101.776 51.4146 102 51.0344 102.286 50.718C102.572 50.4016 102.897 50.1599 103.261 49.9929C103.631 49.8215 104.017 49.7358 104.422 49.7358C104.874 49.7358 105.276 49.8171 105.628 49.9797C105.979 50.1379 106.274 50.3643 106.511 50.6587C106.753 50.9487 106.935 51.2937 107.058 51.6936C107.181 52.0891 107.243 52.5264 107.243 53.0054V53.4866H101.844V52.8142H106.458V52.7219C106.45 52.322 106.368 51.9485 106.215 51.6013C106.065 51.2498 105.841 50.9641 105.542 50.7444C105.243 50.5247 104.87 50.4148 104.422 50.4148C104.088 50.4148 103.78 50.4851 103.499 50.6257C103.222 50.7664 102.982 50.9685 102.78 51.2322C102.583 51.4915 102.429 51.8013 102.319 52.1616C102.213 52.5176 102.161 52.9131 102.161 53.3481V53.6316C102.161 54.0271 102.218 54.3962 102.332 54.739C102.451 55.0774 102.618 55.3762 102.833 55.6355C103.053 55.8948 103.312 56.0969 103.611 56.2419C103.91 56.387 104.239 56.4595 104.6 56.4595C105.021 56.4595 105.395 56.3826 105.72 56.2288C106.045 56.0706 106.338 55.8223 106.597 55.4839L107.091 55.8662C106.938 56.0947 106.744 56.3057 106.511 56.499C106.283 56.6924 106.008 56.8462 105.687 56.9604C105.366 57.0747 104.993 57.1318 104.567 57.1318ZM109.675 46.875V57H108.891V46.875H109.675ZM112.708 46.875V57H111.923V46.875H112.708ZM119.036 49.8677V57H118.251V49.8677H119.036ZM118.113 47.8044C118.113 47.655 118.159 47.5298 118.251 47.4287C118.348 47.3232 118.48 47.2705 118.647 47.2705C118.814 47.2705 118.946 47.3232 119.042 47.4287C119.143 47.5298 119.194 47.655 119.194 47.8044C119.194 47.9495 119.143 48.0747 119.042 48.1802C118.946 48.2812 118.814 48.3318 118.647 48.3318C118.48 48.3318 118.348 48.2812 118.251 48.1802C118.159 48.0747 118.113 47.9495 118.113 47.8044ZM125.825 55.6157V46.875H126.616V57H125.878L125.825 55.6157ZM120.875 53.5063V53.3679C120.875 52.8142 120.938 52.3154 121.066 51.8716C121.193 51.4233 121.376 51.041 121.613 50.7246C121.855 50.4038 122.145 50.1599 122.483 49.9929C122.822 49.8215 123.204 49.7358 123.63 49.7358C124.048 49.7358 124.417 49.804 124.738 49.9402C125.058 50.0764 125.333 50.272 125.562 50.5269C125.794 50.7817 125.981 51.085 126.122 51.4365C126.267 51.7881 126.372 52.1792 126.438 52.6099V54.3699C126.385 54.7742 126.289 55.1455 126.148 55.4839C126.008 55.8179 125.821 56.1101 125.588 56.3606C125.355 56.6067 125.074 56.7979 124.744 56.9341C124.419 57.0659 124.043 57.1318 123.617 57.1318C123.195 57.1318 122.815 57.0439 122.477 56.8682C122.138 56.6924 121.85 56.4441 121.613 56.1233C121.376 55.7981 121.193 55.4136 121.066 54.9697C120.938 54.5259 120.875 54.0381 120.875 53.5063ZM121.666 53.3679V53.5063C121.666 53.9238 121.708 54.3105 121.791 54.6665C121.875 55.0225 122.002 55.3323 122.173 55.5959C122.345 55.8596 122.562 56.0662 122.826 56.2156C123.09 56.365 123.402 56.4397 123.762 56.4397C124.215 56.4397 124.595 56.354 124.902 56.1826C125.21 56.0068 125.456 55.7761 125.641 55.4905C125.825 55.2004 125.959 54.884 126.043 54.5413V52.4912C125.99 52.2583 125.913 52.021 125.812 51.7793C125.711 51.5376 125.573 51.3157 125.397 51.1135C125.225 50.907 125.006 50.7422 124.738 50.6191C124.474 50.4917 124.153 50.428 123.775 50.428C123.41 50.428 123.096 50.5027 122.833 50.6521C122.569 50.8015 122.349 51.0103 122.173 51.2783C122.002 51.542 121.875 51.8518 121.791 52.2078C121.708 52.5637 121.666 52.9504 121.666 53.3679ZM131.448 57.1318C130.982 57.1318 130.554 57.0461 130.163 56.8748C129.776 56.7034 129.438 56.4617 129.147 56.1497C128.862 55.8376 128.64 55.4685 128.482 55.0422C128.328 54.6116 128.251 54.1414 128.251 53.6316V53.3481C128.251 52.7988 128.332 52.3022 128.495 51.8584C128.657 51.4146 128.882 51.0344 129.167 50.718C129.453 50.4016 129.778 50.1599 130.143 49.9929C130.512 49.8215 130.899 49.7358 131.303 49.7358C131.756 49.7358 132.158 49.8171 132.509 49.9797C132.861 50.1379 133.155 50.3643 133.393 50.6587C133.634 50.9487 133.817 51.2937 133.94 51.6936C134.063 52.0891 134.124 52.5264 134.124 53.0054V53.4866H128.726V52.8142H133.34V52.7219C133.331 52.322 133.25 51.9485 133.096 51.6013C132.947 51.2498 132.722 50.9641 132.424 50.7444C132.125 50.5247 131.751 50.4148 131.303 50.4148C130.969 50.4148 130.661 50.4851 130.38 50.6257C130.103 50.7664 129.864 50.9685 129.662 51.2322C129.464 51.4915 129.31 51.8013 129.2 52.1616C129.095 52.5176 129.042 52.9131 129.042 53.3481V53.6316C129.042 54.0271 129.099 54.3962 129.213 54.739C129.332 55.0774 129.499 55.3762 129.714 55.6355C129.934 55.8948 130.193 56.0969 130.492 56.2419C130.791 56.387 131.121 56.4595 131.481 56.4595C131.903 56.4595 132.276 56.3826 132.602 56.2288C132.927 56.0706 133.219 55.8223 133.478 55.4839L133.973 55.8662C133.819 56.0947 133.625 56.3057 133.393 56.499C133.164 56.6924 132.889 56.8462 132.569 56.9604C132.248 57.0747 131.874 57.1318 131.448 57.1318ZM136.464 51.3904V57H135.68V49.8677H136.431L136.464 51.3904ZM136.286 52.9922L135.937 52.7944C135.963 52.3726 136.049 51.9771 136.194 51.6079C136.339 51.2388 136.535 50.9136 136.781 50.6323C137.031 50.3511 137.323 50.1313 137.657 49.9731C137.996 49.8149 138.369 49.7358 138.778 49.7358C139.134 49.7358 139.453 49.7842 139.734 49.8809C140.015 49.9775 140.255 50.1313 140.452 50.3423C140.65 50.5532 140.8 50.8235 140.901 51.1531C141.006 51.4827 141.059 51.8848 141.059 52.3594V57H140.268V52.3528C140.268 51.8606 140.2 51.4761 140.063 51.1992C139.927 50.918 139.734 50.718 139.483 50.5994C139.233 50.4807 138.936 50.4214 138.594 50.4214C138.216 50.4214 137.884 50.5049 137.598 50.6719C137.317 50.8345 137.08 51.0476 136.886 51.3113C136.697 51.5706 136.552 51.8496 136.451 52.1484C136.35 52.4429 136.295 52.7241 136.286 52.9922ZM145.798 49.8677V50.5137H142.226V49.8677H145.798ZM143.537 48.0352H144.322V55.2664C144.322 55.5959 144.366 55.8442 144.454 56.0112C144.542 56.1782 144.656 56.2903 144.796 56.3474C144.937 56.4045 145.089 56.4331 145.251 56.4331C145.37 56.4331 145.484 56.4265 145.594 56.4133C145.704 56.3958 145.803 56.3782 145.891 56.3606L145.924 57.0264C145.827 57.0571 145.702 57.0813 145.548 57.0989C145.394 57.1208 145.24 57.1318 145.086 57.1318C144.783 57.1318 144.515 57.0769 144.282 56.967C144.049 56.8528 143.867 56.6594 143.735 56.387C143.603 56.1101 143.537 55.7344 143.537 55.2598V48.0352ZM148.33 49.8677V57H147.545V49.8677H148.33ZM147.407 47.8044C147.407 47.655 147.453 47.5298 147.545 47.4287C147.642 47.3232 147.774 47.2705 147.941 47.2705C148.108 47.2705 148.24 47.3232 148.336 47.4287C148.437 47.5298 148.488 47.655 148.488 47.8044C148.488 47.9495 148.437 48.0747 148.336 48.1802C148.24 48.2812 148.108 48.3318 147.941 48.3318C147.774 48.3318 147.642 48.2812 147.545 48.1802C147.453 48.0747 147.407 47.9495 147.407 47.8044ZM151.744 57H150.96V49.1162C150.96 48.6021 151.054 48.1692 151.243 47.8176C151.437 47.4617 151.709 47.1936 152.061 47.0134C152.417 46.8289 152.838 46.7366 153.326 46.7366C153.621 46.7366 153.919 46.7695 154.223 46.8354C154.526 46.9014 154.831 46.998 155.139 47.1255L155.014 47.811C154.781 47.71 154.537 47.6265 154.282 47.5605C154.027 47.4946 153.724 47.4617 153.372 47.4617C152.836 47.4617 152.43 47.6023 152.153 47.8835C151.88 48.1648 151.744 48.5757 151.744 49.1162V57ZM153.412 49.8677V50.5137H149.773V49.8677H153.412ZM155.567 49.8677V57H154.783V49.8677H155.567ZM160.505 57.1318C160.039 57.1318 159.61 57.0461 159.219 56.8748C158.833 56.7034 158.494 56.4617 158.204 56.1497C157.918 55.8376 157.697 55.4685 157.538 55.0422C157.385 54.6116 157.308 54.1414 157.308 53.6316V53.3481C157.308 52.7988 157.389 52.3022 157.552 51.8584C157.714 51.4146 157.938 51.0344 158.224 50.718C158.51 50.4016 158.835 50.1599 159.199 49.9929C159.569 49.8215 159.955 49.7358 160.36 49.7358C160.812 49.7358 161.214 49.8171 161.566 49.9797C161.917 50.1379 162.212 50.3643 162.449 50.6587C162.691 50.9487 162.873 51.2937 162.996 51.6936C163.119 52.0891 163.181 52.5264 163.181 53.0054V53.4866H157.782V52.8142H162.396V52.7219C162.388 52.322 162.306 51.9485 162.153 51.6013C162.003 51.2498 161.779 50.9641 161.48 50.7444C161.181 50.5247 160.808 50.4148 160.36 50.4148C160.026 50.4148 159.718 50.4851 159.437 50.6257C159.16 50.7664 158.92 50.9685 158.718 51.2322C158.521 51.4915 158.367 51.8013 158.257 52.1616C158.151 52.5176 158.099 52.9131 158.099 53.3481V53.6316C158.099 54.0271 158.156 54.3962 158.27 54.739C158.389 55.0774 158.556 55.3762 158.771 55.6355C158.991 55.8948 159.25 56.0969 159.549 56.2419C159.848 56.387 160.177 56.4595 160.538 56.4595C160.959 56.4595 161.333 56.3826 161.658 56.2288C161.983 56.0706 162.276 55.8223 162.535 55.4839L163.029 55.8662C162.875 56.0947 162.682 56.3057 162.449 56.499C162.221 56.6924 161.946 56.8462 161.625 56.9604C161.304 57.0747 160.931 57.1318 160.505 57.1318ZM165.521 51.0476V57H164.737V49.8677H165.501L165.521 51.0476ZM168.046 49.8149L168.026 50.54C167.938 50.5269 167.852 50.5159 167.769 50.5071C167.685 50.4983 167.595 50.4939 167.499 50.4939C167.156 50.4939 166.855 50.5576 166.595 50.6851C166.341 50.8081 166.125 50.9817 165.949 51.2058C165.774 51.4255 165.64 51.6848 165.547 51.9836C165.455 52.2781 165.402 52.5945 165.389 52.9329L165.099 53.0449C165.099 52.5791 165.147 52.1462 165.244 51.7463C165.341 51.3464 165.488 50.9971 165.686 50.6982C165.888 50.395 166.141 50.1599 166.444 49.9929C166.751 49.8215 167.112 49.7358 167.525 49.7358C167.626 49.7358 167.725 49.7446 167.822 49.7622C167.923 49.7754 167.997 49.793 168.046 49.8149Z" fill="#AAAAAA"/>
<path d="M48.7324 27H44.9487V8.09473H48.7324V15.6621H56.2866V8.09473H60.0703V27H56.2866V19.4458H48.7324V27ZM76.5498 27H63.5903V8.09473H76.5498V11.8784H67.374V15.6621H73.5835V19.4458H67.374V23.2163H76.5498V27ZM97.96 27H94.1895V13.5C94.1895 13.2363 94.1367 12.9902 94.0312 12.7617C93.9346 12.5332 93.7983 12.3354 93.6226 12.1685C93.4556 11.9927 93.2578 11.8564 93.0293 11.7598C92.8008 11.6631 92.5547 11.6147 92.291 11.6147C92.0273 11.6147 91.7812 11.6631 91.5527 11.7598C91.3242 11.8564 91.1221 11.9927 90.9463 12.1685C90.7793 12.3354 90.6475 12.5332 90.5508 12.7617C90.4541 12.9902 90.4058 13.2363 90.4058 13.5V27H86.6221V13.5C86.6221 13.2363 86.5737 12.9902 86.4771 12.7617C86.3804 12.5332 86.2441 12.3354 86.0684 12.1685C85.9014 11.9927 85.7036 11.8564 85.4751 11.7598C85.2466 11.6631 85.0005 11.6147 84.7368 11.6147C84.4731 11.6147 84.2271 11.6631 83.9985 11.7598C83.77 11.8564 83.5679 11.9927 83.3921 12.1685C83.2251 12.3354 83.0933 12.5332 82.9966 12.7617C82.8999 12.9902 82.8516 13.2363 82.8516 13.5V27H79.0679V13.5C79.0679 12.7178 79.2129 11.9839 79.5029 11.2983C79.8018 10.604 80.2061 10.002 80.7158 9.49219C81.2344 8.97363 81.8364 8.56934 82.522 8.2793C83.2163 7.98047 83.9546 7.83105 84.7368 7.83105C85.4399 7.83105 86.1167 7.9585 86.7671 8.21338C87.4175 8.45947 88.002 8.81982 88.5205 9.29443C89.0391 8.81982 89.6191 8.45947 90.2607 8.21338C90.9111 7.9585 91.5879 7.83105 92.291 7.83105C93.0732 7.83105 93.8071 7.98047 94.4927 8.2793C95.187 8.56934 95.7891 8.97363 96.2988 9.49219C96.8174 10.002 97.2217 10.604 97.5117 11.2983C97.8105 11.9839 97.96 12.7178 97.96 13.5V27ZM119.871 17.6265C119.871 18.5229 119.752 19.3887 119.515 20.2236C119.287 21.0498 118.961 21.8276 118.54 22.5571C118.118 23.2778 117.608 23.937 117.01 24.5347C116.413 25.1323 115.753 25.6465 115.033 26.0771C114.312 26.499 113.534 26.8242 112.699 27.0527C111.864 27.29 110.999 27.4087 110.102 27.4087C109.206 27.4087 108.34 27.29 107.505 27.0527C106.679 26.8242 105.901 26.499 105.171 26.0771C104.451 25.6465 103.792 25.1323 103.194 24.5347C102.596 23.937 102.082 23.2778 101.651 22.5571C101.229 21.8276 100.9 21.0498 100.663 20.2236C100.434 19.3887 100.32 18.5229 100.32 17.6265C100.32 16.73 100.434 15.8643 100.663 15.0293C100.9 14.1943 101.229 13.4165 101.651 12.6958C102.082 11.9751 102.596 11.3159 103.194 10.7183C103.792 10.1206 104.451 9.61084 105.171 9.18896C105.901 8.76709 106.679 8.44189 107.505 8.21338C108.34 7.97607 109.206 7.85742 110.102 7.85742C110.999 7.85742 111.864 7.97607 112.699 8.21338C113.534 8.44189 114.312 8.76709 115.033 9.18896C115.753 9.61084 116.413 10.1206 117.01 10.7183C117.608 11.3159 118.118 11.9751 118.54 12.6958C118.961 13.4165 119.287 14.1943 119.515 15.0293C119.752 15.8643 119.871 16.73 119.871 17.6265ZM116.114 17.6265C116.114 16.8003 115.956 16.0225 115.639 15.293C115.323 14.5547 114.892 13.9175 114.347 13.3813C113.811 12.8364 113.174 12.4058 112.436 12.0894C111.706 11.7729 110.928 11.6147 110.102 11.6147C109.267 11.6147 108.485 11.7729 107.755 12.0894C107.026 12.4058 106.389 12.8364 105.844 13.3813C105.299 13.9175 104.868 14.5547 104.552 15.293C104.235 16.0225 104.077 16.8003 104.077 17.6265C104.077 18.4526 104.235 19.2305 104.552 19.96C104.868 20.6807 105.299 21.3135 105.844 21.8584C106.389 22.4033 107.026 22.834 107.755 23.1504C108.485 23.4668 109.267 23.625 110.102 23.625C110.928 23.625 111.706 23.4668 112.436 23.1504C113.174 22.834 113.811 22.4033 114.347 21.8584C114.892 21.3135 115.323 20.6807 115.639 19.96C115.956 19.2305 116.114 18.4526 116.114 17.6265ZM136.469 8.09473L130.26 27H126.476L120.293 8.09473H124.591L128.361 20.7114L132.145 8.09473H136.469ZM142.072 27H138.289V8.09473H142.072V27ZM144.485 13.7637C144.485 12.9814 144.634 12.2476 144.933 11.562C145.232 10.8765 145.636 10.2788 146.146 9.76904C146.665 9.25049 147.267 8.8418 147.952 8.54297C148.638 8.24414 149.372 8.09473 150.154 8.09473H158.829V11.8784H150.154C149.89 11.8784 149.644 11.9268 149.416 12.0234C149.187 12.1201 148.985 12.2563 148.809 12.4321C148.642 12.5991 148.51 12.7969 148.414 13.0254C148.317 13.2539 148.269 13.5 148.269 13.7637C148.269 14.0273 148.317 14.2778 148.414 14.5151C148.51 14.7437 148.642 14.9458 148.809 15.1216C148.985 15.2886 149.187 15.4204 149.416 15.5171C149.644 15.6138 149.89 15.6621 150.154 15.6621H153.938C154.72 15.6621 155.454 15.8115 156.139 16.1104C156.833 16.4004 157.436 16.8047 157.945 17.3232C158.464 17.833 158.868 18.4351 159.158 19.1294C159.457 19.8149 159.606 20.5488 159.606 21.3311C159.606 22.1133 159.457 22.8472 159.158 23.5327C158.868 24.2183 158.464 24.8203 157.945 25.3389C157.436 25.8486 156.833 26.2529 156.139 26.5518C155.454 26.8506 154.72 27 153.938 27H145.54V23.2163H153.938C154.201 23.2163 154.447 23.168 154.676 23.0713C154.904 22.9746 155.102 22.8428 155.269 22.6758C155.445 22.5 155.581 22.2979 155.678 22.0693C155.774 21.8408 155.823 21.5947 155.823 21.3311C155.823 21.0674 155.774 20.8213 155.678 20.5928C155.581 20.3643 155.445 20.1665 155.269 19.9995C155.102 19.8237 154.904 19.6875 154.676 19.5908C154.447 19.4941 154.201 19.4458 153.938 19.4458H150.154C149.372 19.4458 148.638 19.2964 147.952 18.9976C147.267 18.6987 146.665 18.2944 146.146 17.7847C145.636 17.2661 145.232 16.6641 144.933 15.9785C144.634 15.2842 144.485 14.5459 144.485 13.7637ZM165.882 27H162.098V8.09473H165.882V27ZM187.925 17.6265C187.925 18.5229 187.806 19.3887 187.569 20.2236C187.34 21.0498 187.015 21.8276 186.593 22.5571C186.171 23.2778 185.662 23.937 185.064 24.5347C184.466 25.1323 183.807 25.6465 183.086 26.0771C182.366 26.499 181.588 26.8242 180.753 27.0527C179.918 27.29 179.052 27.4087 178.156 27.4087C177.259 27.4087 176.394 27.29 175.559 27.0527C174.732 26.8242 173.955 26.499 173.225 26.0771C172.504 25.6465 171.845 25.1323 171.248 24.5347C170.65 23.937 170.136 23.2778 169.705 22.5571C169.283 21.8276 168.954 21.0498 168.716 20.2236C168.488 19.3887 168.374 18.5229 168.374 17.6265C168.374 16.73 168.488 15.8643 168.716 15.0293C168.954 14.1943 169.283 13.4165 169.705 12.6958C170.136 11.9751 170.65 11.3159 171.248 10.7183C171.845 10.1206 172.504 9.61084 173.225 9.18896C173.955 8.76709 174.732 8.44189 175.559 8.21338C176.394 7.97607 177.259 7.85742 178.156 7.85742C179.052 7.85742 179.918 7.97607 180.753 8.21338C181.588 8.44189 182.366 8.76709 183.086 9.18896C183.807 9.61084 184.466 10.1206 185.064 10.7183C185.662 11.3159 186.171 11.9751 186.593 12.6958C187.015 13.4165 187.34 14.1943 187.569 15.0293C187.806 15.8643 187.925 16.73 187.925 17.6265ZM184.167 17.6265C184.167 16.8003 184.009 16.0225 183.693 15.293C183.376 14.5547 182.946 13.9175 182.401 13.3813C181.865 12.8364 181.228 12.4058 180.489 12.0894C179.76 11.7729 178.982 11.6147 178.156 11.6147C177.321 11.6147 176.539 11.7729 175.809 12.0894C175.08 12.4058 174.442 12.8364 173.897 13.3813C173.353 13.9175 172.922 14.5547 172.605 15.293C172.289 16.0225 172.131 16.8003 172.131 17.6265C172.131 18.4526 172.289 19.2305 172.605 19.96C172.922 20.6807 173.353 21.3135 173.897 21.8584C174.442 22.4033 175.08 22.834 175.809 23.1504C176.539 23.4668 177.321 23.625 178.156 23.625C178.982 23.625 179.76 23.4668 180.489 23.1504C181.228 22.834 181.865 22.4033 182.401 21.8584C182.946 21.3135 183.376 20.6807 183.693 19.96C184.009 19.2305 184.167 18.4526 184.167 17.6265ZM205.538 27H201.491L194.2 14.5547V27H190.417V8.09473H194.464L201.754 20.5532V8.09473H205.538V27Z" fill="black"/>
<g clip-path="url(#clip0_3_74)">
<path d="M24.6797 19.0859C24.6797 10.543 15.1875 3.89844 15.1875 3.89844C15.1875 3.89844 5.69531 10.543 5.69531 19.0859C5.69531 21.6034 6.69538 24.0178 8.47551 25.7979C10.2556 27.5781 12.67 28.5781 15.1875 28.5781C17.705 28.5781 20.1194 27.5781 21.8995 25.7979C23.6796 24.0178 24.6797 21.6034 24.6797 19.0859Z" fill="#EF4444" stroke="black" stroke-width="2.25" stroke-linecap="round" stroke-linejoin="round"/>
<path d="M16.1509 24.6882C17.312 24.4909 18.3831 23.9379 19.2163 23.1057C20.0496 22.2734 20.6039 21.203 20.8027 20.0422" stroke="black" stroke-width="3.375" stroke-linecap="round" stroke-linejoin="round"/>
</g>
<defs>
<clipPath id="clip0_3_74">
<rect width="30.375" height="30.375" fill="white" transform="translate(0 2)"/>
</clipPath>
</defs>
</svg>
