<svg width="194px" height="32px" viewBox="0 0 134 22" fill="none" xmlns="http://www.w3.org/2000/svg">
<path d="M31.2515 17H28.8033V4.76718H31.2515V9.66372H36.1396V4.76718H38.5878V17H36.1396V12.112H31.2515V17ZM49.251 17H40.8655V4.76718H49.251V7.21545H43.3138V9.66372H47.3317V12.112H43.3138V14.5517H49.251V17ZM63.1047 17H60.6649V8.26471C60.6649 8.0941 60.6308 7.93486 60.5626 7.787C60.5 7.63913 60.4118 7.51117 60.2981 7.40312C60.19 7.28938 60.0621 7.20123 59.9142 7.13867C59.7664 7.07612 59.6071 7.04484 59.4365 7.04484C59.2659 7.04484 59.1067 7.07612 58.9588 7.13867C58.8109 7.20123 58.6801 7.28938 58.5664 7.40312C58.4583 7.51117 58.373 7.63913 58.3105 7.787C58.2479 7.93486 58.2166 8.0941 58.2166 8.26471V17H55.7684V8.26471C55.7684 8.0941 55.7371 7.93486 55.6745 7.787C55.612 7.63913 55.5238 7.51117 55.4101 7.40312C55.302 7.28938 55.1741 7.20123 55.0262 7.13867C54.8784 7.07612 54.7191 7.04484 54.5485 7.04484C54.3779 7.04484 54.2187 7.07612 54.0708 7.13867C53.9229 7.20123 53.7921 7.28938 53.6784 7.40312C53.5703 7.51117 53.485 7.63913 53.4225 7.787C53.3599 7.93486 53.3286 8.0941 53.3286 8.26471V17H50.8804V8.26471C50.8804 7.75856 50.9742 7.28369 51.1619 6.8401C51.3552 6.39083 51.6168 6.00126 51.9467 5.67142C52.2822 5.33588 52.6718 5.07428 53.1154 4.8866C53.5646 4.69325 54.0424 4.59657 54.5485 4.59657C55.0035 4.59657 55.4414 4.67903 55.8622 4.84395C56.2831 5.00319 56.6612 5.23636 56.9968 5.54346C57.3323 5.23636 57.7077 5.00319 58.1228 4.84395C58.5437 4.67903 58.9816 4.59657 59.4365 4.59657C59.9427 4.59657 60.4175 4.69325 60.8611 4.8866C61.3104 5.07428 61.7 5.33588 62.0298 5.67142C62.3653 6.00126 62.6269 6.39083 62.8146 6.8401C63.008 7.28369 63.1047 7.75856 63.1047 8.26471V17ZM77.2824 10.9348C77.2824 11.5148 77.2057 12.075 77.0521 12.6153C76.9043 13.1499 76.6938 13.6532 76.4209 14.1252C76.1479 14.5915 75.818 15.0181 75.4313 15.4048C75.0446 15.7915 74.6181 16.1242 74.1517 16.4029C73.6854 16.6758 73.1821 16.8863 72.6418 17.0341C72.1016 17.1877 71.5414 17.2644 70.9613 17.2644C70.3812 17.2644 69.8211 17.1877 69.2808 17.0341C68.7462 16.8863 68.2429 16.6758 67.7709 16.4029C67.3045 16.1242 66.878 15.7915 66.4913 15.4048C66.1046 15.0181 65.7719 14.5915 65.4932 14.1252C65.2202 13.6532 65.007 13.1499 64.8534 12.6153C64.7056 12.075 64.6316 11.5148 64.6316 10.9348C64.6316 10.3547 64.7056 9.79452 64.8534 9.25425C65.007 8.71398 65.2202 8.21068 65.4932 7.74434C65.7719 7.27801 66.1046 6.85148 66.4913 6.46476C66.878 6.07804 67.3045 5.74819 67.7709 5.47521C68.2429 5.20224 68.7462 4.99182 69.2808 4.84395C69.8211 4.6904 70.3812 4.61363 70.9613 4.61363C71.5414 4.61363 72.1016 4.6904 72.6418 4.84395C73.1821 4.99182 73.6854 5.20224 74.1517 5.47521C74.6181 5.74819 75.0446 6.07804 75.4313 6.46476C75.818 6.85148 76.1479 7.27801 76.4209 7.74434C76.6938 8.21068 76.9043 8.71398 77.0521 9.25425C77.2057 9.79452 77.2824 10.3547 77.2824 10.9348ZM74.8512 10.9348C74.8512 10.4002 74.7489 9.89689 74.5441 9.42486C74.3394 8.94715 74.0607 8.53484 73.7081 8.18793C73.3612 7.83534 72.9489 7.55667 72.4712 7.35194C71.9992 7.1472 71.4959 7.04484 70.9613 7.04484C70.421 7.04484 69.9149 7.1472 69.4429 7.35194C68.9708 7.55667 68.5585 7.83534 68.2059 8.18793C67.8533 8.53484 67.5747 8.94715 67.3699 9.42486C67.1652 9.89689 67.0628 10.4002 67.0628 10.9348C67.0628 11.4694 67.1652 11.9727 67.3699 12.4447C67.5747 12.911 67.8533 13.3205 68.2059 13.6731C68.5585 14.0257 68.9708 14.3043 69.4429 14.5091C69.9149 14.7138 70.421 14.8162 70.9613 14.8162C71.4959 14.8162 71.9992 14.7138 72.4712 14.5091C72.9489 14.3043 73.3612 14.0257 73.7081 13.6731C74.0607 13.3205 74.3394 12.911 74.5441 12.4447C74.7489 11.9727 74.8512 11.4694 74.8512 10.9348ZM88.0224 4.76718L84.0045 17H81.5563L77.5554 4.76718H80.3364L82.7761 12.9309L85.2244 4.76718H88.0224ZM91.6479 17H89.1996V4.76718H91.6479V17ZM93.209 8.43532C93.209 7.92917 93.3057 7.4543 93.499 7.01071C93.6924 6.56713 93.954 6.18041 94.2839 5.85056C94.6194 5.51502 95.0089 5.25058 95.4525 5.05722C95.8961 4.86386 96.371 4.76718 96.8771 4.76718H102.49V7.21545H96.8771C96.7065 7.21545 96.5473 7.24673 96.3994 7.30928C96.2516 7.37184 96.1208 7.45999 96.007 7.57373C95.899 7.68179 95.8137 7.80974 95.7511 7.95761C95.6885 8.10547 95.6573 8.26471 95.6573 8.43532C95.6573 8.60593 95.6885 8.76801 95.7511 8.92156C95.8137 9.06942 95.899 9.20022 96.007 9.31397C96.1208 9.42202 96.2516 9.50732 96.3994 9.56988C96.5473 9.63244 96.7065 9.66372 96.8771 9.66372H99.3254C99.8316 9.66372 100.306 9.7604 100.75 9.95376C101.199 10.1414 101.589 10.403 101.919 10.7386C102.254 11.0684 102.516 11.458 102.704 11.9073C102.897 12.3508 102.994 12.8257 102.994 13.3319C102.994 13.838 102.897 14.3129 102.704 14.7565C102.516 15.2001 102.254 15.5896 101.919 15.9251C101.589 16.255 101.199 16.5166 100.75 16.71C100.306 16.9033 99.8316 17 99.3254 17H93.8914V14.5517H99.3254C99.496 14.5517 99.6553 14.5205 99.8031 14.4579C99.951 14.3953 100.079 14.31 100.187 14.202C100.301 14.0882 100.389 13.9574 100.451 13.8096C100.514 13.6617 100.545 13.5025 100.545 13.3319C100.545 13.1612 100.514 13.002 100.451 12.8541C100.389 12.7063 100.301 12.5783 100.187 12.4703C100.079 12.3565 99.951 12.2684 99.8031 12.2058C99.6553 12.1433 99.496 12.112 99.3254 12.112H96.8771C96.371 12.112 95.8961 12.0153 95.4525 11.822C95.0089 11.6286 94.6194 11.367 94.2839 11.0371C93.954 10.7016 93.6924 10.312 93.499 9.86845C93.3057 9.41918 93.209 8.94146 93.209 8.43532ZM107.054 17H104.606V4.76718H107.054V17ZM121.317 10.9348C121.317 11.5148 121.24 12.075 121.087 12.6153C120.939 13.1499 120.729 13.6532 120.456 14.1252C120.183 14.5915 119.853 15.0181 119.466 15.4048C119.079 15.7915 118.653 16.1242 118.186 16.4029C117.72 16.6758 117.217 16.8863 116.677 17.0341C116.136 17.1877 115.576 17.2644 114.996 17.2644C114.416 17.2644 113.856 17.1877 113.316 17.0341C112.781 16.8863 112.278 16.6758 111.806 16.4029C111.339 16.1242 110.913 15.7915 110.526 15.4048C110.139 15.0181 109.807 14.5915 109.528 14.1252C109.255 13.6532 109.042 13.1499 108.888 12.6153C108.74 12.075 108.666 11.5148 108.666 10.9348C108.666 10.3547 108.74 9.79452 108.888 9.25425C109.042 8.71398 109.255 8.21068 109.528 7.74434C109.807 7.27801 110.139 6.85148 110.526 6.46476C110.913 6.07804 111.339 5.74819 111.806 5.47521C112.278 5.20224 112.781 4.99182 113.316 4.84395C113.856 4.6904 114.416 4.61363 114.996 4.61363C115.576 4.61363 116.136 4.6904 116.677 4.84395C117.217 4.99182 117.72 5.20224 118.186 5.47521C118.653 5.74819 119.079 6.07804 119.466 6.46476C119.853 6.85148 120.183 7.27801 120.456 7.74434C120.729 8.21068 120.939 8.71398 121.087 9.25425C121.24 9.79452 121.317 10.3547 121.317 10.9348ZM118.886 10.9348C118.886 10.4002 118.784 9.89689 118.579 9.42486C118.374 8.94715 118.095 8.53484 117.743 8.18793C117.396 7.83534 116.984 7.55667 116.506 7.35194C116.034 7.1472 115.531 7.04484 114.996 7.04484C114.456 7.04484 113.95 7.1472 113.478 7.35194C113.006 7.55667 112.593 7.83534 112.241 8.18793C111.888 8.53484 111.609 8.94715 111.405 9.42486C111.2 9.89689 111.098 10.4002 111.098 10.9348C111.098 11.4694 111.2 11.9727 111.405 12.4447C111.609 12.911 111.888 13.3205 112.241 13.6731C112.593 14.0257 113.006 14.3043 113.478 14.5091C113.95 14.7138 114.456 14.8162 114.996 14.8162C115.531 14.8162 116.034 14.7138 116.506 14.5091C116.984 14.3043 117.396 14.0257 117.743 13.6731C118.095 13.3205 118.374 12.911 118.579 12.4447C118.784 11.9727 118.886 11.4694 118.886 10.9348ZM132.714 17H130.095L125.378 8.94715V17H122.929V4.76718H125.548L130.266 12.8286V4.76718H132.714V17Z" fill="black"/>
<g clip-path="url(#clip0_340_63)">
<path d="M15.8907 12.0556C15.8907 6.52777 9.77891 2.22837 9.77891 2.22837C9.77891 2.22837 3.66709 6.52777 3.66709 12.0556C3.66709 13.6845 4.31101 15.2468 5.4572 16.3986C6.60339 17.5505 8.15796 18.1976 9.77891 18.1976C11.3999 18.1976 12.9544 17.5505 14.1006 16.3986C15.2468 15.2468 15.8907 13.6845 15.8907 12.0556Z" fill="#EF4444" stroke="black" stroke-width="1.45588" stroke-linecap="round" stroke-linejoin="round"/>
<path d="M10.3993 15.6806C11.1468 15.5529 11.8365 15.1951 12.373 14.6566C12.9095 14.1181 13.2664 13.4255 13.3944 12.6744" stroke="black" stroke-width="2.18382" stroke-linecap="round" stroke-linejoin="round"/>
</g>
<defs>
<clipPath id="clip0_340_63">
<rect width="19.5578" height="19.6544" fill="white" transform="translate(0 0.999986)"/>
</clipPath>
</defs>
</svg>
